
  <svg
    width="1000"
    height="1000"
    viewBox="0 0 1000 1000"
    xmlns="http://www.w3.org/2000/svg"
  >
    <defs>
      
      
      <linearGradient id="linearGradientId" gradientTransform="rotate(-15 0.5 0.5)">
      <stop offset="0%"  stop-color="#ff479f" />
			<stop offset="100%"  stop-color="#800249" />
    </linearGradient>
      
      
      
      
      <clipPath id="shape">
        <path fill="currentColor" d="M797,609.5Q674,719,555.5,747.5Q437,776,290,724Q143,672,188,522Q233,372,327,263Q421,154,610.5,139Q800,124,860,312Q920,500,797,609.5Z"></path>
      </clipPath>
    </defs>
  
    

    <g  clip-path="url(#shape)">
      <path fill="url(#linearGradientId)" d="M797,609.5Q674,719,555.5,747.5Q437,776,290,724Q143,672,188,522Q233,372,327,263Q421,154,610.5,139Q800,124,860,312Q920,500,797,609.5Z" />
    </g>

    
  
  </svg>